<svg xmlns="http://www.w3.org/2000/svg" version="1.1" xmlns:xlink="http://www.w3.org/1999/xlink" width="128" height="128"><svg xmlns="http://www.w3.org/2000/svg" viewBox="0 0 128 128">
  <path fill="#0f0f0f" d="M0,64C0,12.8,12.8,0,64,0s64,12.8,64,64-12.8,64-64,64S0,115.2,0,64"></path>
  <path fill="#fff" d="M33.18,80.4s1.96-.64,3.73-1.84c3.91-2.65,6.88-10.66,7.82-19.04,0,0,.99-8.71-1.31-17.94-.73-2.95-1.57-5.06-1.89-5.84-1.21-2.89-2.59-5.15-3.67-6.73h0c1.18.52,3.11,1.47,5.51,3.16,1.42,1,1.38,1.1,3.05,2.26,1.07.75,1.91,1.25,2.1,1.37,1.76,1.06,3.21,1.73,3.99,2,7.07,2.48,7.9,2.65,9.76,4.16.67.54,4.06,3.27,3.99,7.26-.06,3.31-2.48,6.42-6.09,8.1,2.08-.18,6.25-.23,10.45,2.05.49.27,2.37,1.31,4.3,3.26,1.24,1.25,2.84,2.87,3.83,5.58.95,2.58.86,4.85.73,6-.1.98-.32,2.85-1.52,4.89-1.07,1.83-2.43,2.94-3.25,3.52,1.55-.27,3.71-.81,6.09-2,1.4-.7,3.32-1.85,5.25-3.68.84.23,1.68.46,2.52.68,1.02.28,1.87.37,2.57.47,2.76.41,5.91.87,9.45.68,1.19-.06,2.42-.2,2.52-.21,1.13-.13,2.11-.28,2.89-.42-1.26,1.9-3.04,4.25-5.46,6.68-2.05,2.06-3.92,3.57-5.2,4.47-4.95,3.49-10.28,5.56-11.02,5.84-3.46,1.32-10.07,3.43-19.21,3.79-8.28.32-23.38.29-35.7-9.47-4.8-3.8-6.98-8.42-6.98-8.42-.14-.32-.28-.63-.42-.95,1.3.47,3.28,1,5.72,1.05,2.29.04,4.18-.36,5.46-.74h0ZM54.55,52.51c.68-.03,1.98-.18,3.31-1,.7-.44,1.65-1.03,2.05-2.16.6-1.72-.55-3.4-.84-3.84-1.07-1.61-2.69-2.17-3.99-2.63-1.6-.56-3-.64-3.88-.63.83,1.8,1.66,3.9,2.36,6.26.42,1.4.74,2.74,1,4h0ZM55.65,82.87c2.3-.41,6.36-1.52,9.71-4.89,1.33-1.34,2.85-2.91,3.25-5.42.42-2.58-.42-5.58-2.57-7.47-1.69-1.48-3.67-1.75-5.46-2-1.87-.26-3.44-.11-4.46.05.18,1.3.32,2.65.42,4.05.41,5.89-.07,11.18-.89,15.68h0Z"></path>
  <path fill="#fff" d="M105.12,51.18c-.69-2.27-1.72-3.75-2.88-5.4-.76-1.07-2.99-4.09-7.49-7.39-6.56-4.82-11.78-5.74-14.02-5.66-.65.02-2.24.08-3.54,1.17-.83.7-1.24,1.56-1.3,1.69-.06.12-.16.35-.24.65-.06.23-.24,1.01.14,2.32.62,2.09,2.17,3.74,2.24,3.88,0,0,0,0,0,0h0s-1.02-1.83-1.25-3.16c-.02-.12-.05-.33-.06-.6-.04-.39-.09-1.4.55-2.29.27-.38.81-.91,2.12-1.26,2.83-.76,5.57.42,7.22,1.14.43.19,2.33,1.04,4.57,2.75,2.56,1.95,4.15,3.93,4.9,4.95,1.43,1.93,2.47,3.35,2.91,5.56.23,1.18.82,4.11-.71,5.57-2.22,2.13-7.14-.58-7.35-.7-.99-.56-1.8-1.24-2.47-1.96l3.27-.49-5.21-3.01,1.52-6.34-4.74,4.49-5.21-3.01,2.28,5.78-4.74,4.49,6.15-.91,2.28,5.78.8-3.33c.73,1.01,1.62,2.13,2.65,3.18.93.95,2.26,2.27,4.4,3.36,1.23.62,3.2,1.6,5.87,1.56,1.4-.02,4.36-.06,6.35-2.11,3.23-3.33,1.4-9.37.99-10.71h0Z"></path>
</svg><style>@media (prefers-color-scheme: light) { :root { filter: none; } }
@media (prefers-color-scheme: dark) { :root { filter: none; } }
</style></svg>