<svg xmlns="http://www.w3.org/2000/svg" viewBox="0 0 2880 2400">
  <!-- B + L -->
  <path fill="#fff" d="M383.4,1762.1s67.23-22.11,127.8-63.13c134.05-90.76,235.93-365.47,268.2-652.9,0,0,33.85-298.58-45-615.02-25.19-101.1-53.68-173.61-64.8-200.2-41.49-99.24-88.72-176.73-126-230.86,0,0,.09.04.09.04,40.43,17.89,106.75,50.4,188.91,108.17,48.77,34.29,47.29,37.7,104.4,77.55,36.66,25.58,65.54,43.01,72,46.89,60.36,36.23,110.16,59.21,136.8,68.54,242.44,84.89,270.96,91,334.8,142.48,22.98,18.53,139.18,112.23,136.8,248.89-1.97,113.56-85.18,220.22-208.8,277.75,71.25-6.13,214.24-7.72,358.2,70.34,16.87,9.15,81.19,44.75,147.6,111.82,42.39,42.81,97.4,98.36,131.4,191.18,32.4,88.46,29.39,166.16,25.2,205.61-3.57,33.6-11.04,97.59-52.2,167.73-36.83,62.77-83.3,100.95-111.6,120.84,53.09-9.1,127.37-27.74,208.8-68.54,48.17-24.13,113.87-63.55,180-126.25,28.8,7.82,57.6,15.63,86.4,23.45,34.98,9.49,63.95,12.66,88.2,16.23,94.51,13.9,202.76,29.83,324,23.45,40.86-2.15,82.84-6.81,86.4-7.21,38.89-4.37,72.39-9.65,99-14.43-43.33,65.05-104.3,145.71-187.2,229.06-70.35,70.72-134.27,122.31-178.2,153.3-169.64,119.68-352.46,190.47-378,200.2-118.5,45.15-345.36,117.76-658.8,129.86-283.9,10.95-801.68,9.92-1224-324.65C89.38,1942.07,14.4,1783.75,14.4,1783.75c-4.8-10.82-9.6-21.64-14.4-32.46,44.62,15.98,112.29,34.43,196.2,36.07,78.62,1.54,143.21-12.24,187.2-25.25ZM1116,806.2c23.41-.94,68.01-6.02,113.4-34.27,24.12-15.01,56.74-35.3,70.2-73.95,20.52-58.9-18.8-116.68-28.8-131.66-36.73-55.06-92.33-74.57-136.8-90.18-54.75-19.21-102.85-22.04-133.2-21.64,28.58,61.88,56.92,133.58,81,214.63,14.3,48.11,25.46,94,34.2,137.07ZM1153.8,1846.87c78.82-14.08,218.08-52.21,333-167.73,45.73-45.97,97.67-99.65,111.6-185.77,14.28-88.3-14.53-191.36-88.2-256.11-57.8-50.8-125.99-59.97-187.2-68.54-64.08-8.97-117.81-3.91-153,1.8,6.11,44.49,11.02,90.81,14.4,138.88,14.19,201.92-2.33,383.48-30.6,537.47Z"/>
  <!-- Star -->
  <path fill="#fff" d="M2849.72,760.59c-23.54-77.71-58.84-128.65-98.75-185.19-25.98-36.81-102.62-140.13-256.75-253.37-224.79-165.16-403.79-196.67-480.75-194.03-22.13.76-76.77,2.63-121.46,40.05-28.54,23.9-42.47,53.47-44.48,57.85-1.96,4.27-5.53,12.12-8.2,22.17-2.06,7.74-8.37,34.74,4.85,79.59,21.16,71.78,74.37,128.21,76.9,132.94,0,.01.04.06.04.06,0,0,0,0,0,0-.01-.03-34.88-62.62-42.77-108.23-.72-4.18-1.76-11.34-1.97-20.58-1.31-13.21-2.94-48.11,18.93-78.36,9.38-12.97,27.72-31.06,72.63-43.04,97.1-25.9,191.12,14.48,247.45,39.17,14.65,6.42,79.95,35.64,156.85,94.16,87.68,66.73,142.18,134.83,167.94,169.69,49,66.32,84.62,114.82,99.68,190.77,7.99,40.29,27.96,141.02-24.46,191.1-76.28,72.88-244.82-19.75-252.13-23.87-33.78-19.04-61.64-42.37-84.6-67.23l112.03-16.67-178.54-103.08,52.02-217.51-162.36,153.81-178.54-103.08,78.2,198.14-162.36,153.81,210.69-31.35,78.2,198.14,27.31-114.2c25.14,34.77,55.65,73.13,90.74,109.1,31.78,32.58,77.54,77.94,150.92,115.22,42.16,21.42,109.63,54.72,201.11,53.47,47.95-.66,149.5-2.05,217.67-72.36,110.59-114.06,47.83-321.29,33.97-367.08Z"/>
</svg>